<svg width="50" height="42" viewBox="0 0 50 42" fill="none" xmlns="http://www.w3.org/2000/svg">
<g clip-path="url(#clip0_301_470)">
<path d="M21.5192 28H28.5742V23.3333H21.5192V28ZM30.9259 21V28.2333C30.9259 29.3931 29.9783 30.3333 28.8094 30.3333H21.284C20.1151 30.3333 19.1675 29.3931 19.1675 28.2333V21H30.9259ZM14.4641 9.33333V5.83333C14.4641 2.61167 17.0963 0 20.3433 0H29.7501C32.9971 0 35.6293 2.61167 35.6293 5.83333V9.33333H14.4641ZM33.2776 7V5.83333C33.2776 3.90034 31.6983 2.33333 29.7501 2.33333H20.3433C18.3951 2.33333 16.8158 3.90034 16.8158 5.83333V7H33.2776Z" fill="#222132"/>
<path d="M47.3878 22.1672C46.4052 22.8995 45.1838 23.3335 43.8602 23.3335H6.23322C4.90969 23.3335 3.6883 22.8995 2.70569 22.1672V33.8335C2.70569 37.0551 5.33791 39.6668 8.58491 39.6668H41.5085C44.7555 39.6668 47.3878 37.0551 47.3878 33.8335V22.1672ZM3.88154 7.00012H46.2119C48.1601 7.00012 49.7394 8.56713 49.7394 10.5001V33.8335C49.7394 38.3438 46.0543 42.0001 41.5085 42.0001H8.58491C4.03911 42.0001 0.354004 38.3438 0.354004 33.8335V10.5001C0.354004 8.56713 1.93333 7.00012 3.88154 7.00012ZM3.88154 9.33346C3.23214 9.33346 2.70569 9.85579 2.70569 10.5001V17.5001C2.70569 19.4331 4.28502 21.0001 6.23322 21.0001H43.8602C45.8084 21.0001 47.3878 19.4331 47.3878 17.5001V10.5001C47.3878 9.85579 46.8613 9.33346 46.2119 9.33346H3.88154Z" fill="#222132"/>
</g>
<defs>
<clipPath id="clip0_301_470">
<rect width="49.3854" height="42" fill="white" transform="translate(0.354004)"/>
</clipPath>
</defs>
</svg>
