<svg width="69" height="69" viewBox="0 0 69 69" fill="none" xmlns="http://www.w3.org/2000/svg">
<path d="M35.7001 49.2V43.8H30.3001V49.2H35.7001ZM38.4001 49.2H27.6001V42.8782C22.0625 40.9209 17.9068 36.0382 16.9898 30.087C10.7335 29.0114 6.00012 23.9896 6.00012 17.9571V11.4C6.00012 9.90883 7.20895 8.7 8.70012 8.7H16.8001C16.8001 7.20883 18.009 6 19.5001 6H46.5001C47.9913 6 49.2001 7.20883 49.2001 8.7H57.3001C58.7913 8.7 60.0001 9.90883 60.0001 11.4V17.9571C60.0001 23.9896 55.2667 29.0114 49.0104 30.087C48.0935 36.0382 43.9378 40.9209 38.4001 42.8782V49.2ZM19.5001 8.7V27.6C19.5001 35.0558 25.5443 41.1 33.0001 41.1C40.456 41.1 46.5001 35.0558 46.5001 27.6V8.7H19.5001ZM57.3001 17.9571V11.4H49.2001V27.2967C53.8865 26.2201 57.3001 22.4079 57.3001 17.9571ZM16.8001 11.4H8.70012V17.9571C8.70012 22.4079 12.1138 26.2201 16.8001 27.2967V11.4Z" fill="#222132"/>
<path d="M43.8001 49.2C45.2913 49.2 46.5001 49.9117 46.5001 51.9V57.3C46.5001 59.2882 45.2913 60 43.8001 60H22.2001C20.709 60 19.5001 59.2882 19.5001 57.3V51.9C19.5001 49.9117 20.709 49.2 22.2001 49.2H43.8001ZM22.2001 57.3H43.8001V51.9H22.2001V57.3Z" fill="#222132"/>
</svg>
