<svg width="49" height="50" viewBox="0 0 49 50" fill="none" xmlns="http://www.w3.org/2000/svg">
<path d="M30.3333 9.19532L16.3333 3.11003V40.4493C16.524 40.4324 16.718 40.4626 16.8975 40.5399L30.3333 46.3285V9.19532ZM32.6667 10.1113V47.3338L46.6667 40.8653V3.76898L33.1728 10.0038C33.0125 10.0779 32.8394 10.1138 32.6667 10.1113ZM14.001 4.20676L2.33333 9.69332V46.7931L14.0745 41.4105C14.0264 41.2826 14 41.1441 14 40.9994V4.2767C14 4.2533 14.0003 4.22999 14.001 4.20676ZM1.65286 49.6719C0.880064 50.0262 0 49.4615 0 48.6114V8.94474C0 8.4886 0.265833 8.0743 0.680477 7.88421L15.8324 0.77282C16.1326 0.635218 16.477 0.631249 16.7802 0.761897L32.6668 7.66724L47.344 0.88566C48.1171 0.528449 49 1.0931 49 1.94474V41.6114C49 42.0663 48.7356 42.4797 48.3227 42.6705L33.1728 49.6705C32.872 49.8095 32.5262 49.814 32.2219 49.6829L16.4506 42.8881L1.65286 49.6719Z" fill="#222132"/>
</svg>
