<svg width="41" height="49" viewBox="0 0 41 49" fill="none" xmlns="http://www.w3.org/2000/svg">
<g clip-path="url(#clip0_301_450)">
<path d="M21.3431 36.5557V47.831C21.3431 48.4753 20.8122 48.9976 20.1574 48.9976C19.5025 48.9976 18.9716 48.4753 18.9716 47.831V36.5555L12.0945 27.5334C11.7016 27.0179 11.8078 26.2867 12.3316 25.9001C12.8555 25.5135 13.5987 25.6179 13.9917 26.1334L20.1574 34.2223L26.3232 26.1334C26.7161 25.6179 27.4593 25.5135 27.9832 25.9001C28.5071 26.2867 28.6133 27.0179 28.2204 27.5334L21.3431 36.5557ZM15.5328 10.0227C13.5005 12.6425 11.0781 14.0022 8.30017 14.0024C7.64531 14.0024 7.11441 13.4801 7.11438 12.8358C7.11435 12.1914 7.64518 11.6691 8.30004 11.669C10.5844 11.6689 12.5991 10.3438 14.3962 7.54376C14.8368 6.85722 15.8377 6.81248 16.3398 7.45689C18.6733 10.452 23.7631 11.159 31.7469 9.33821C32.3848 9.19272 33.0218 9.58362 33.1697 10.2113C33.3176 10.839 32.9203 11.4658 32.2823 11.6113C24.4283 13.4025 18.8124 12.9299 15.5328 10.0227ZM27.2723 39.669C26.6174 39.6693 26.0863 39.1473 26.086 38.5029C26.0856 37.8586 26.6162 37.336 27.2711 37.3357L32.014 37.3333C32.6689 37.333 33.2 37.8551 33.2003 38.4994C33.2007 39.1437 32.6701 39.6663 32.0152 39.6667L27.2723 39.669Z" fill="#222132"/>
<path d="M13.0531 25.7958C8.45101 28.0177 2.37145 34.9286 2.37145 38.5497V44.6335C2.37145 45.6271 2.37145 45.9993 2.37145 46.5815L37.9432 46.6234C37.9432 46.4155 37.9432 46.1778 37.9432 45.7761V38.5497C37.9432 35.1782 31.6517 28.153 27.3062 25.7627C25.3877 27.1925 23.0034 28 20.1573 28C17.3333 28 14.9639 27.205 13.0531 25.7958ZM11.2255 24.1098C8.4911 20.9919 7.11435 16.2466 7.11435 10.7917C7.11435 3.57366 12.1582 0 20.1573 0C28.1564 0 33.2003 3.57366 33.2003 10.7917C33.2003 16.2388 31.8275 20.9783 29.1009 24.0964C34.0482 27.1211 40.3147 34.3231 40.3147 38.5497V47.7482C40.3147 48.3925 39.7838 48.9149 39.1289 48.9149H1.18573C0.530867 48.9149 0 48.3925 0 47.7482V38.5497C0 34.1155 6.03276 27.0127 11.2255 24.1098ZM20.1573 25.6667C27.1576 25.6667 30.8289 19.4074 30.8289 10.7917C30.8289 5.0583 26.9828 2.33333 20.1573 2.33333C13.3318 2.33333 9.4858 5.0583 9.4858 10.7917C9.4858 19.4074 13.157 25.6667 20.1573 25.6667Z" fill="#222132"/>
</g>
<defs>
<clipPath id="clip0_301_450">
<rect width="40.3147" height="49" fill="white"/>
</clipPath>
</defs>
</svg>
