<svg width="133" height="133" viewBox="0 0 133 133" fill="none" xmlns="http://www.w3.org/2000/svg">
<path opacity="0.4" d="M24.4546 33.8681C13.9975 45.2174 15.0504 59.792 15.0837 59.9583V104.292C15.0837 105.761 15.6675 107.171 16.7068 108.21C17.7461 109.249 19.1556 109.833 20.6253 109.833H53.8754C59.9878 109.833 64.9587 104.862 64.9587 98.7499V59.9583C64.9587 58.4885 64.3748 57.079 63.3356 56.0397C62.2963 55.0004 60.8868 54.4166 59.417 54.4166H42.3598C42.4769 51.6769 43.2954 49.0131 44.7371 46.6804C47.5523 42.2416 52.8557 39.2103 60.5087 37.6808L64.9587 36.7941V21.1666H59.417C43.9946 21.1666 32.2296 25.4392 24.4546 33.8681ZM85.4518 33.8681C74.9891 45.2174 76.0476 59.792 76.0808 59.9583V104.292C76.0808 105.761 76.6647 107.171 77.7039 108.21C78.7432 109.249 80.1527 109.833 81.6225 109.833H114.872C120.985 109.833 125.956 104.862 125.956 98.7499V59.9583C125.956 58.4885 125.372 57.079 124.333 56.0397C123.293 55.0004 121.884 54.4166 120.414 54.4166H103.357C103.474 51.6769 104.293 49.0131 105.734 46.6804C108.549 42.2416 113.853 39.2103 121.506 37.6808L125.956 36.7941V21.1666H120.414C104.992 21.1666 93.2267 25.4392 85.4518 33.8681Z" fill="#FFAF0F"/>
</svg>
