<svg width="55" height="49" viewBox="0 0 55 49" fill="none" xmlns="http://www.w3.org/2000/svg">
<path d="M49.5 10.8889H38.5V5.44444L33 0H22L16.5 5.44444V10.8889H5.5C2.475 10.8889 0 13.3389 0 16.3333V29.9444C0 31.9861 1.1 33.7011 2.75 34.6539V43.5556C2.75 46.5772 5.1975 49 8.25 49H46.75C49.8025 49 52.25 46.5772 52.25 43.5556V34.6267C53.8725 33.6739 55 31.9317 55 29.9444V16.3333C55 13.3389 52.525 10.8889 49.5 10.8889ZM22 5.44444H33V10.8889H22V5.44444ZM5.5 16.3333H49.5V29.9444H35.75V21.7778H19.25V29.9444H5.5V16.3333ZM30.25 32.6667H24.75V27.2222H30.25V32.6667ZM46.75 43.5556H8.25V35.3889H19.25V38.1111H35.75V35.3889H46.75V43.5556Z" fill="#F95C19"/>
</svg>
