<svg width="44" height="55" viewBox="0 0 44 55" fill="none" xmlns="http://www.w3.org/2000/svg">
<path d="M33 8.25V5.5C33 4.04131 32.4205 2.64236 31.3891 1.61091C30.3576 0.579462 28.9587 0 27.5 0H16.5C15.0413 0 13.6424 0.579462 12.6109 1.61091C11.5795 2.64236 11 4.04131 11 5.5V8.25C8.08262 8.25 5.28472 9.40892 3.22182 11.4718C1.15892 13.5347 0 16.3326 0 19.25V49.5C0 50.9587 0.579462 52.3576 1.61091 53.3891C2.64236 54.4205 4.04131 55 5.5 55H38.5C39.9587 55 41.3576 54.4205 42.3891 53.3891C43.4205 52.3576 44 50.9587 44 49.5V19.25C44 16.3326 42.8411 13.5347 40.7782 11.4718C38.7153 9.40892 35.9174 8.25 33 8.25ZM16.5 5.5H27.5V8.25H16.5V5.5ZM22 19.25L27.5 24.75L22 30.25L16.5 24.75L22 19.25ZM38.5 49.5H5.5V38.5H11V44H13.75V38.5H38.5V49.5ZM38.5 35.75H5.5V19.25C5.5 17.7913 6.07946 16.3924 7.11091 15.3609C8.14236 14.3295 9.54131 13.75 11 13.75H33C34.4587 13.75 35.8576 14.3295 36.8891 15.3609C37.9205 16.3924 38.5 17.7913 38.5 19.25V35.75Z" fill="#F95C19"/>
</svg>
