<svg width="55" height="55" viewBox="0 0 55 55" fill="none" xmlns="http://www.w3.org/2000/svg">
<path d="M52.9375 11.0069V2.2C52.9375 0.983125 51.9544 0 50.7375 0H4.26254C3.04567 0 2.06254 0.983125 2.06254 2.2V11.0069C0.914417 11.0756 4.2597e-05 12.0312 4.2597e-05 13.2V22.2544C-0.00436019 23.9184 0.332582 25.5657 0.990042 27.0944C1.28567 27.7956 1.65004 28.4556 2.06254 29.0813V52.8C2.06254 54.01 3.04567 55 4.26254 55H50.7375C51.9544 55 52.9375 54.0169 52.9375 52.8V29.0813C53.3565 28.454 53.7156 27.7888 54.01 27.0944C54.6631 25.5613 55 23.9319 55 22.2544V13.2C55 12.0312 54.0856 11.0756 52.9375 11.0069ZM7.01254 4.95H47.9875V11H7.01254V4.95ZM31.9 50.0569H23.1V42.9H31.9V50.0569ZM47.9875 50.0569H36.3V40.7C36.3 39.4831 35.3169 38.5 34.1 38.5H20.9C19.6832 38.5 18.7 39.4831 18.7 40.7V50.0569H7.01254V33.4056C7.21191 33.5019 7.41816 33.5981 7.63129 33.6806C9.16441 34.3269 10.7938 34.65 12.4713 34.65C14.1488 34.65 15.7713 34.3269 17.3113 33.6806C18.26 33.2819 19.1538 32.7731 19.9719 32.1613C19.9857 32.1544 19.9994 32.1544 20.0132 32.1613C20.8338 32.7757 21.7275 33.2861 22.6738 33.6806C24.2069 34.3269 25.8363 34.65 27.5138 34.65C29.1913 34.65 30.8138 34.3269 32.3538 33.6806C33.3025 33.2819 34.1963 32.7731 35.0144 32.1613C35.0281 32.1544 35.0419 32.1544 35.0556 32.1613C35.8763 32.7757 36.77 33.2861 37.7163 33.6806C39.2494 34.3269 40.8788 34.65 42.5563 34.65C44.2338 34.65 45.8563 34.3269 47.3963 33.6806C47.6025 33.5913 47.8088 33.5019 48.015 33.4056V50.0569H47.9875ZM50.05 22.2544C50.05 26.3656 46.6813 29.7 42.5356 29.7C39.7306 29.7 37.2831 28.1806 35.9906 25.9256C35.7913 25.5819 35.4338 25.3687 35.035 25.3687H34.9938C34.6019 25.3687 34.2375 25.5819 34.0381 25.9256C33.3786 27.0759 32.4262 28.0311 31.2778 28.694C30.1294 29.357 28.826 29.7041 27.5 29.7C24.7019 29.7 22.2613 28.1875 20.9688 25.9394C20.7625 25.5887 20.3913 25.3687 19.9857 25.3687C19.58 25.3687 19.2019 25.5887 19.0025 25.9394C18.3391 27.0853 17.3855 28.0362 16.2377 28.6964C15.0899 29.3565 13.7885 29.7027 12.4644 29.7C8.31879 29.7 4.95004 26.3656 4.95004 22.2544V15.9844C4.95004 15.9637 4.96379 15.95 4.98441 15.95H50.0156C50.0363 15.95 50.05 15.9637 50.05 15.9844V22.2544Z" fill="#F95C19"/>
</svg>
