<svg width="62" height="29" viewBox="0 0 62 29" fill="none" xmlns="http://www.w3.org/2000/svg">
<path d="M0.31934 28C0.31934 26.388 0.39734 24.984 0.55334 23.788C0.70934 22.592 0.99534 21.526 1.41134 20.59C1.82734 19.654 2.38634 18.822 3.08834 18.094C3.81634 17.34 4.73934 16.625 5.85734 15.949C6.71534 15.429 7.59934 14.935 8.50934 14.467C9.44534 13.973 10.3163 13.466 11.1223 12.946C11.9283 12.4 12.5783 11.789 13.0723 11.113C13.5923 10.411 13.8523 9.605 13.8523 8.695C13.8523 7.993 13.7093 7.421 13.4233 6.979C13.1633 6.511 12.7733 6.16 12.2533 5.926C11.7593 5.666 11.1743 5.536 10.4983 5.536C9.66634 5.536 8.86034 5.705 8.08034 6.043C7.30034 6.355 6.58534 6.745 5.93534 7.213C5.28534 7.655 4.72634 8.123 4.25834 8.617L0.35834 4.483C0.80034 3.989 1.37234 3.482 2.07434 2.962C2.77634 2.442 3.59534 1.961 4.53134 1.519C5.46734 1.051 6.50734 0.686999 7.65134 0.426999C8.79534 0.140998 10.0303 -0.00200212 11.3563 -0.00200212C13.4103 -0.00200212 15.1523 0.348998 16.5823 1.051C18.0123 1.727 19.0913 2.689 19.8193 3.937C20.5733 5.185 20.9503 6.641 20.9503 8.305C20.9503 9.397 20.7943 10.385 20.4823 11.269C20.1703 12.127 19.7283 12.907 19.1563 13.609C18.5843 14.285 17.9213 14.909 17.1673 15.481C16.4133 16.053 15.6073 16.599 14.7493 17.119C13.5793 17.769 12.6173 18.341 11.8633 18.835C11.1093 19.329 10.4853 19.771 9.99134 20.161C9.52334 20.551 9.14634 20.928 8.86034 21.292C8.57434 21.656 8.31434 22.02 8.08034 22.384H20.9893V28H0.31934ZM45.1358 18.679C45.1358 20.499 44.6808 22.137 43.7708 23.593C42.8868 25.049 41.6648 26.219 40.1048 27.103C38.5708 27.961 36.8418 28.39 34.9178 28.39C32.7598 28.39 30.9138 27.87 29.3798 26.83C27.8458 25.79 26.6628 24.295 25.8308 22.345C25.0248 20.369 24.6218 18.003 24.6218 15.247C24.6218 12.023 25.0638 9.28 25.9478 7.018C26.8318 4.756 28.0798 3.04 29.6918 1.87C31.3298 0.673999 33.2798 0.0759992 35.5418 0.0759992C37.2578 0.0759992 38.8568 0.439999 40.3388 1.168C41.8208 1.87 43.1078 2.871 44.1998 4.171L40.6898 8.149C40.0398 7.317 39.2598 6.667 38.3498 6.199C37.4398 5.731 36.4648 5.497 35.4248 5.497C34.4368 5.497 33.5658 5.744 32.8118 6.238C32.0578 6.732 31.4728 7.447 31.0568 8.383C30.6408 9.319 30.4068 10.45 30.3548 11.776C30.7188 11.282 31.1478 10.879 31.6418 10.567C32.1358 10.229 32.7078 9.982 33.3578 9.826C34.0078 9.644 34.7098 9.553 35.4638 9.553C37.3098 9.553 38.9608 9.956 40.4168 10.762C41.8728 11.568 43.0168 12.66 43.8488 14.038C44.7068 15.39 45.1358 16.937 45.1358 18.679ZM34.9178 23.125C35.6978 23.125 36.3998 22.93 37.0238 22.54C37.6738 22.124 38.1938 21.578 38.5838 20.902C38.9998 20.226 39.2078 19.485 39.2078 18.679C39.2078 17.899 39.0128 17.197 38.6228 16.573C38.2328 15.923 37.7128 15.416 37.0628 15.052C36.4128 14.662 35.6978 14.467 34.9178 14.467C34.1378 14.467 33.4228 14.662 32.7728 15.052C32.1228 15.416 31.6028 15.923 31.2128 16.573C30.8228 17.197 30.6278 17.912 30.6278 18.718C30.6278 19.498 30.8228 20.226 31.2128 20.902C31.6288 21.578 32.1618 22.124 32.8118 22.54C33.4618 22.93 34.1638 23.125 34.9178 23.125ZM61.4534 11.659V16.651H57.7484V20.707H52.1324V16.651H48.4664V11.659H52.1324V7.603H57.7484V11.659H61.4534Z" fill="#F95C19"/>
</svg>
