<svg width="60" height="29" viewBox="0 0 60 29" fill="none" xmlns="http://www.w3.org/2000/svg">
<path d="M21.191 18.679C21.191 20.499 20.736 22.137 19.826 23.593C18.942 25.049 17.72 26.219 16.16 27.103C14.626 27.961 12.897 28.39 10.973 28.39C8.815 28.39 6.969 27.87 5.435 26.83C3.901 25.79 2.718 24.295 1.886 22.345C1.08 20.369 0.677 18.003 0.677 15.247C0.677 12.023 1.119 9.28 2.003 7.018C2.887 4.756 4.135 3.04 5.747 1.87C7.385 0.673999 9.335 0.0759992 11.597 0.0759992C13.313 0.0759992 14.912 0.439999 16.394 1.168C17.876 1.87 19.163 2.871 20.255 4.171L16.745 8.149C16.095 7.317 15.315 6.667 14.405 6.199C13.495 5.731 12.52 5.497 11.48 5.497C10.492 5.497 9.621 5.744 8.867 6.238C8.113 6.732 7.528 7.447 7.112 8.383C6.696 9.319 6.462 10.45 6.41 11.776C6.774 11.282 7.203 10.879 7.697 10.567C8.191 10.229 8.763 9.982 9.413 9.826C10.063 9.644 10.765 9.553 11.519 9.553C13.365 9.553 15.016 9.956 16.472 10.762C17.928 11.568 19.072 12.66 19.904 14.038C20.762 15.39 21.191 16.937 21.191 18.679ZM10.973 23.125C11.753 23.125 12.455 22.93 13.079 22.54C13.729 22.124 14.249 21.578 14.639 20.902C15.055 20.226 15.263 19.485 15.263 18.679C15.263 17.899 15.068 17.197 14.678 16.573C14.288 15.923 13.768 15.416 13.118 15.052C12.468 14.662 11.753 14.467 10.973 14.467C10.193 14.467 9.478 14.662 8.828 15.052C8.178 15.416 7.658 15.923 7.268 16.573C6.878 17.197 6.683 17.912 6.683 18.718C6.683 19.498 6.878 20.226 7.268 20.902C7.684 21.578 8.217 22.124 8.867 22.54C9.517 22.93 10.219 23.125 10.973 23.125ZM33.2575 28.351C31.2295 28.351 29.4095 27.948 27.7975 27.142C26.2115 26.31 24.9765 25.179 24.0925 23.749L27.6025 19.888C28.3305 20.824 29.2015 21.565 30.2155 22.111C31.2295 22.631 32.2565 22.891 33.2965 22.891C34.1025 22.891 34.8045 22.735 35.4025 22.423C36.0005 22.085 36.4685 21.63 36.8065 21.058C37.1445 20.486 37.3135 19.823 37.3135 19.069C37.3135 18.315 37.1575 17.665 36.8455 17.119C36.5335 16.547 36.0915 16.105 35.5195 15.793C34.9735 15.481 34.3495 15.325 33.6475 15.325C32.9455 15.325 32.2825 15.481 31.6585 15.793C31.0605 16.105 30.5925 16.547 30.2545 17.119H24.8335L28.0705 0.270999H41.8375V5.965H32.5945L31.7755 10.684C31.9575 10.502 32.2695 10.346 32.7115 10.216C33.1795 10.06 33.7905 9.982 34.5445 9.982C36.3125 9.982 37.8855 10.372 39.2635 11.152C40.6415 11.906 41.7205 12.959 42.5005 14.311C43.3065 15.637 43.7095 17.171 43.7095 18.913C43.7095 20.785 43.2545 22.436 42.3445 23.866C41.4605 25.27 40.2385 26.375 38.6785 27.181C37.1185 27.961 35.3115 28.351 33.2575 28.351ZM59.9412 11.659V16.651H56.2362V20.707H50.6202V16.651H46.9542V11.659H50.6202V7.603H56.2362V11.659H59.9412Z" fill="#F95C19"/>
</svg>
