<svg width="878" height="580" viewBox="0 0 878 580" fill="none" xmlns="http://www.w3.org/2000/svg">
<path d="M29.8086 320.571H133.723V401.465H29.8086V320.571Z" fill="#3F3D56"/>
<path d="M11.897 320.571H106.952V401.465H11.897V320.571Z" fill="#FFD078"/>
<path d="M11.6378 401.789H107.34V320.248H11.6378V401.789ZM106.629 401.142H12.22V320.894H106.629V401.142Z" fill="#3F3D56"/>
<path d="M44.4871 320.571V340.746L50.436 337.448L55.0272 340.552L60.5236 337.448L65.5675 340.746V320.571H44.4871Z" fill="#3F3D56"/>
<path d="M65.5678 360.275H87.4886V361.568H65.5678V360.275Z" fill="#3F3D56"/>
<path d="M65.5678 368.81H87.4886V370.103H65.5678V368.81Z" fill="#3F3D56"/>
<path d="M65.5678 377.346H87.4886V378.639H65.5678V377.346Z" fill="#3F3D56"/>
<path d="M23.6656 358.529H59.1658V380.708H23.6656V358.529Z" fill="#FEFEFE"/>
<path d="M23.3422 380.967H59.489V358.141H23.3422V380.967ZM58.8424 380.32H23.9888V358.787H58.8424V380.32Z" fill="#3F3D56"/>
<path d="M130.879 416.273H103.138C101.845 416.273 100.552 416.855 99.7759 417.89L85.7438 435.543C83.4806 438.388 85.4853 442.527 89.1064 442.527H130.879V416.273Z" fill="#F27B79"/>
<path d="M89.1067 442.85H131.203V415.95H103.139C101.716 415.95 100.358 416.597 99.5176 417.696L85.4855 435.349C84.3862 436.772 84.1277 438.647 84.9683 440.263C85.6796 441.815 87.2962 442.85 89.1067 442.85ZM130.556 442.203H89.1067C87.5548 442.203 86.1968 441.363 85.4855 439.94C84.8389 438.517 84.9683 436.901 85.9383 435.737L99.9701 418.084C100.746 417.114 101.846 416.597 103.074 416.597H130.491V442.203H130.556Z" fill="#3F3D56"/>
<path d="M413.524 305.31C413.524 307.703 411.584 309.578 409.256 309.578H395.289C392.896 309.578 391.021 307.638 391.021 305.31C391.021 302.918 392.961 301.043 395.289 301.043H409.256C411.584 300.978 413.524 302.918 413.524 305.31Z" fill="#3F3D56"/>
<path d="M360.823 310.354H378.023V334.732H360.823V310.354Z" fill="#3F3D56"/>
<path d="M405.117 491.154V348.635C405.117 336.543 395.289 326.714 383.197 326.714H319.826C307.734 326.714 297.905 336.543 297.905 348.635V479.902C297.905 491.024 288.917 500.012 277.795 500.012H260.013C248.89 500.012 239.902 491.024 239.902 479.902V422.546C239.902 422.546 240.355 405.216 251.024 402.694H141.484C141.484 402.694 95.9611 439.811 86.3909 499.624V506.22H405.117V491.154Z" fill="#FFD078"/>
<path d="M86.0675 506.544H405.441V348.635C405.441 336.349 395.483 326.391 383.196 326.391H319.826C307.54 326.391 297.582 336.349 297.582 348.635V479.902C297.582 490.83 288.723 499.689 277.795 499.689H260.012C249.084 499.689 240.225 490.83 240.225 479.902V422.546C240.225 422.352 240.743 405.474 251.154 403.017L253.869 402.371H141.42L141.355 402.435C141.226 402.5 129.78 411.941 117.365 428.495C105.855 443.82 91.1114 468.586 86.197 499.56L86.0675 506.544ZM404.794 505.897H86.7142V499.625C91.6286 468.845 106.307 444.143 117.753 428.947C129.586 413.169 140.514 403.923 141.613 403.017H249.084C240.096 406.962 239.643 421.834 239.579 422.546V479.902C239.579 491.154 248.761 500.336 260.012 500.336H277.795C289.046 500.336 298.229 491.154 298.229 479.902V348.635C298.229 336.737 307.928 327.038 319.826 327.038H383.196C395.095 327.038 404.794 336.737 404.794 348.635V505.897Z" fill="#3F3D56"/>
<path d="M361.922 326.649H369.682V469.944H361.922V326.649Z" fill="#3F3D56"/>
<path d="M0.000213623 399.202H147.951V406.574H0.000213623V399.202Z" fill="#3F3D56"/>
<path d="M166.25 506.608H269.065V527.753H166.25V506.608Z" fill="#3F3D56"/>
<path d="M129.198 569.396C103.342 569.396 82.3817 545.57 82.3817 516.178C82.3817 486.787 103.342 462.96 129.198 462.96C155.054 462.96 176.014 486.787 176.014 516.178C176.014 545.57 155.054 569.396 129.198 569.396Z" fill="#2F2E41"/>
<path d="M121.309 548.445C104.488 548.445 90.8525 532.928 90.8525 513.786C90.8525 494.644 104.488 479.126 121.309 479.126C138.13 479.126 151.766 494.644 151.766 513.786C151.766 532.928 138.13 548.445 121.309 548.445Z" fill="#FEFEFE"/>
<path d="M121.309 548.769C138.316 548.769 152.089 533.055 152.089 513.786C152.089 494.516 138.251 478.803 121.309 478.803C104.367 478.803 90.5292 494.516 90.5292 513.786C90.5292 533.055 104.303 548.769 121.309 548.769ZM121.309 479.449C137.928 479.449 151.442 494.839 151.442 513.786C151.442 532.732 137.928 548.122 121.309 548.122C104.691 548.122 91.1758 532.732 91.1758 513.786C91.1758 494.839 104.691 479.449 121.309 479.449Z" fill="#3F3D56"/>
<path d="M137.41 513.98C137.41 521.675 133.789 528.529 122.214 528.529C115.425 528.529 112.903 521.675 112.903 513.98C112.903 506.285 115.489 500.013 122.214 500.013C133.789 500.013 137.41 506.22 137.41 513.98Z" fill="#3F3D56"/>
<path d="M121.439 527.947C114.653 527.947 109.153 521.694 109.153 513.98C109.153 506.266 114.653 500.012 121.439 500.012C128.224 500.012 133.725 506.266 133.725 513.98C133.725 521.694 128.224 527.947 121.439 527.947Z" fill="#FEFEFE"/>
<path d="M121.439 528.206C128.358 528.206 134.048 521.804 134.048 513.915C134.048 506.026 128.422 499.624 121.439 499.624C114.455 499.624 108.829 506.026 108.829 513.915C108.829 521.804 114.52 528.206 121.439 528.206ZM121.439 500.336C128.034 500.336 133.401 506.479 133.401 513.98C133.401 521.481 128.034 527.624 121.439 527.624C114.843 527.624 109.476 521.481 109.476 513.98C109.476 506.479 114.843 500.336 121.439 500.336Z" fill="#3F3D56"/>
<path d="M392.961 569.396C367.105 569.396 346.144 545.57 346.144 516.178C346.144 486.787 367.105 462.96 392.961 462.96C418.817 462.96 439.777 486.787 439.777 516.178C439.777 545.57 418.817 569.396 392.961 569.396Z" fill="#2F2E41"/>
<path d="M385.071 548.445C368.251 548.445 354.615 532.928 354.615 513.786C354.615 494.644 368.251 479.126 385.071 479.126C401.892 479.126 415.528 494.644 415.528 513.786C415.528 532.928 401.892 548.445 385.071 548.445Z" fill="#FEFEFE"/>
<path d="M385.072 548.769C402.078 548.769 415.852 533.055 415.852 513.786C415.852 494.516 402.014 478.803 385.072 478.803C368.13 478.803 354.292 494.516 354.292 513.786C354.292 533.055 368.065 548.769 385.072 548.769ZM385.072 479.449C401.69 479.449 415.205 494.839 415.205 513.786C415.205 532.732 401.69 548.122 385.072 548.122C368.453 548.122 354.939 532.732 354.939 513.786C354.939 494.839 368.453 479.449 385.072 479.449Z" fill="#3F3D56"/>
<path d="M401.173 513.98C401.173 521.675 397.552 527.947 385.977 527.947C379.187 527.947 376.665 521.675 376.665 513.98C376.665 506.285 379.252 500.013 385.977 500.013C397.552 500.013 401.173 506.22 401.173 513.98Z" fill="#3F3D56"/>
<path d="M385.201 527.947C378.416 527.947 372.915 521.694 372.915 513.98C372.915 506.266 378.416 500.012 385.201 500.012C391.987 500.012 397.487 506.266 397.487 513.98C397.487 521.694 391.987 527.947 385.201 527.947Z" fill="#FEFEFE"/>
<path d="M385.201 528.206C392.12 528.206 397.811 521.804 397.811 513.915C397.811 506.026 392.185 499.624 385.201 499.624C378.217 499.624 372.592 506.026 372.592 513.915C372.592 521.804 378.282 528.206 385.201 528.206ZM385.201 500.336C391.797 500.336 397.164 506.479 397.164 513.98C397.164 521.481 391.797 527.624 385.201 527.624C378.605 527.624 373.238 521.481 373.238 513.98C373.238 506.479 378.67 500.336 385.201 500.336Z" fill="#3F3D56"/>
<path d="M43.1312 499.818H49.0804C49.8563 493.675 55.0938 488.955 61.4309 488.955H193.603V513.915H61.4309C55.4172 513.915 50.3735 509.647 49.2095 503.957H43.1312V499.818Z" fill="#3F3D56"/>
<path d="M66.6037 506.22C66.6037 506.22 58.3916 440.393 135.277 422.481C163.017 416.014 226.711 411.811 212.42 506.22H66.6037Z" fill="#FFD078"/>
<path d="M66.2806 506.543H212.614L212.679 506.285C217.981 471.173 213.002 446.212 197.871 432.245C179.377 415.109 150.602 418.601 135.147 422.222C117.559 426.296 103.009 433.28 91.8227 442.915C82.8991 450.61 76.1097 460.05 71.7126 470.979C64.2116 489.537 66.1515 506.091 66.2162 506.285L66.2806 506.543ZM212.097 505.897H66.8628C66.6688 503.634 65.4402 488.244 72.3592 471.173C79.2135 454.231 95.7026 432.051 135.277 422.804C150.602 419.248 179.119 415.756 197.418 432.698C212.42 446.536 217.335 471.173 212.097 505.897Z" fill="#3F3D56"/>
<path d="M243.782 406.574H147.369C137.346 406.574 129.198 398.426 129.198 388.403C129.198 377.798 138.251 369.457 148.791 370.297L244.881 377.928C252.318 378.51 258.073 384.717 258.073 392.218C258.073 400.107 251.671 406.574 243.782 406.574Z" fill="#3F3D56"/>
<path d="M342.588 498.913H452.774C452.774 498.913 450.964 482.683 440.036 467.939C416.11 435.931 366.384 440.328 348.796 476.152C345.627 482.489 343.428 489.99 342.588 498.913Z" fill="#FFD078"/>
<path d="M342.2 499.236H453.098L453.033 498.849C453.033 498.655 451.093 482.359 440.23 467.745C428.914 452.549 410.808 444.531 391.797 446.277C372.915 448.023 356.749 459.145 348.408 476.022C345.11 482.812 342.976 490.442 342.2 498.849V499.236ZM452.386 498.59H342.976C343.752 490.442 345.821 482.941 349.054 476.346C357.266 459.662 373.238 448.67 391.926 446.988C410.678 445.242 428.59 453.196 439.777 468.198C449.606 481.454 451.998 496.133 452.386 498.59Z" fill="#3F3D56"/>
<path d="M65.8279 510.488H349.248V501.952H452.645V494.193H349.054C344.851 494.193 341.488 497.62 341.488 501.758V502.728H65.8279V510.488Z" fill="#3F3D56"/>
<path d="M264.668 552.325H283.615V544.566H267.32L230.849 516.76L226.194 522.903L264.668 552.325Z" fill="#3F3D56"/>
<path d="M360.241 318.437H383.843C385.266 318.437 386.688 318.243 387.981 317.92C395.482 316.045 401.044 309.255 401.044 301.172C401.044 296.387 399.104 292.119 396 289.015C393.801 286.817 391.085 285.265 387.981 284.489C386.623 284.166 385.266 283.972 383.778 283.972H380.351C368.518 283.972 357.202 289.856 351.059 300.008C350.735 300.525 350.412 301.107 350.089 301.689C346.144 309.32 351.641 318.437 360.241 318.437Z" fill="#FFD078"/>
<path d="M360.241 318.761H383.843C385.266 318.761 386.688 318.567 388.111 318.243C395.935 316.303 401.432 309.32 401.432 301.172C401.432 296.452 399.621 292.054 396.259 288.757C393.995 286.493 391.15 284.877 388.111 284.101C386.688 283.778 385.266 283.584 383.843 283.584H380.416C368.259 283.584 356.943 289.791 350.865 299.814C350.541 300.396 350.218 300.913 349.895 301.495C347.955 305.117 348.019 309.449 350.153 313.005C352.352 316.627 356.102 318.761 360.241 318.761ZM383.843 284.295C385.201 284.295 386.624 284.489 387.917 284.812C390.892 285.523 393.607 287.075 395.806 289.274C398.974 292.442 400.785 296.71 400.785 301.237C400.785 309.061 395.482 315.786 387.981 317.661C386.623 317.985 385.266 318.179 383.908 318.179H360.306C356.361 318.179 352.804 316.174 350.8 312.747C348.795 309.384 348.666 305.31 350.541 301.883C350.865 301.301 351.188 300.784 351.511 300.202C357.46 290.373 368.583 284.295 380.481 284.295H383.843Z" fill="#3F3D56"/>
<path d="M376.148 301.237C376.148 308.091 379.123 314.234 383.843 318.502H383.908C393.413 318.502 401.173 310.807 401.173 301.237C401.173 296.452 399.233 292.184 396.129 289.08C393.025 285.976 388.693 284.036 383.973 284.036H383.908C379.058 288.239 376.148 294.382 376.148 301.237Z" fill="#3F3D56"/>
<path d="M380.868 301.237C380.868 307.833 383.583 313.717 387.981 317.985C395.482 316.11 401.043 309.32 401.043 301.237C401.043 296.452 399.103 292.184 395.999 289.08C393.801 286.882 391.084 285.33 387.981 284.554C383.583 288.692 380.868 294.641 380.868 301.237Z" fill="#FEFEFE"/>
<path d="M387.917 318.308L388.111 318.243C395.935 316.303 401.432 309.32 401.432 301.172C401.432 296.452 399.621 292.055 396.259 288.757C393.995 286.493 391.15 284.877 388.111 284.101L387.917 284.036L387.788 284.166C383.132 288.627 380.545 294.641 380.545 301.107C380.545 307.574 383.132 313.587 387.788 318.049L387.917 318.308ZM388.111 284.877C391.021 285.653 393.672 287.14 395.806 289.274C398.974 292.442 400.785 296.71 400.785 301.237C400.785 308.996 395.612 315.657 388.111 317.597C383.649 313.264 381.192 307.444 381.192 301.237C381.192 294.964 383.649 289.209 388.111 284.877Z" fill="#3F3D56"/>
<path d="M337.027 302.724H349.766V307.962H337.027V302.724Z" fill="#FFD078"/>
<path d="M336.768 308.35H350.153V302.465H336.768V308.35ZM349.442 307.703H337.35V303.112H349.442V307.703Z" fill="#3F3D56"/>
<path d="M354.551 300.978H349.442C347.05 300.978 345.174 302.918 345.174 305.246C345.174 307.638 347.114 309.514 349.442 309.514H354.551C356.943 309.514 358.818 307.574 358.818 305.246C358.818 302.918 356.943 300.978 354.551 300.978Z" fill="#3F3D56"/>
<path d="M339.484 305.31C339.484 307.703 337.544 309.578 335.216 309.578H321.249C318.856 309.578 316.981 307.638 316.981 305.31C316.981 302.918 318.921 301.043 321.249 301.043H335.216C337.544 300.978 339.484 302.918 339.484 305.31Z" fill="#3F3D56"/>
<path d="M108.7 489.666H171.811V493.287H108.7V489.666Z" fill="white"/>
<path d="M108.376 493.611H172.135V489.343H108.376V493.611ZM171.488 492.964H109.023V489.99H171.488V492.964Z" fill="black"/>
<path d="M108.7 480.096H171.811V483.717H108.7V480.096Z" fill="white"/>
<path d="M108.376 484.041H172.135V479.773H108.376V484.041ZM171.488 483.394H109.023V480.419H171.488V483.394Z" fill="black"/>
<path d="M108.7 470.591H171.811V474.212H108.7V470.591Z" fill="white"/>
<path d="M108.376 474.535H172.135V470.267H108.376V474.535ZM171.488 473.888H109.023V470.914H171.488V473.888Z" fill="black"/>
<path d="M204.79 552.261H337.35V553.554H204.79V552.261Z" fill="#3F3D56"/>
<path d="M463 579H878V580H463V579Z" fill="#3F3D56"/>
<path d="M557.546 578.867H608.109C608.109 578.867 604.918 567.977 582.515 559.03L582.585 556.533L582.793 543.008H558.864L558.448 554.938L557.546 578.867Z" fill="#3F3D56"/>
<path d="M557.13 579.213H608.525L608.387 578.797C608.248 578.381 604.919 567.7 582.793 558.822L583.001 542.73H558.379L557.13 579.213ZM607.624 578.52H557.893L559.142 543.355H582.377L582.169 559.238L582.377 559.307C601.798 567.145 606.722 576.439 607.624 578.52Z" fill="#3F3D56"/>
<path d="M491.655 578.866H542.218C542.218 578.866 539.027 567.977 516.624 559.03L516.833 557.365L518.775 543.008H494.846L493.736 555.493L491.655 578.866Z" fill="#3F3D56"/>
<path d="M491.239 579.213H542.704L542.565 578.797C542.426 578.381 539.097 567.7 516.971 558.822L519.122 542.661H494.499L491.239 579.213ZM541.733 578.52H492.002L495.123 543.355H518.359L516.208 559.238L516.486 559.307C535.976 567.145 540.831 576.439 541.733 578.52Z" fill="#3F3D56"/>
<path d="M790.316 578.866H840.878L837.619 553.55L836.301 543.008H812.372L815.216 555.978L815.909 561.804C792.396 569.018 790.316 578.866 790.316 578.866Z" fill="#3F3D56"/>
<path d="M789.9 579.213H841.295L836.647 542.661H811.956L814.938 556.047L815.562 561.527C792.396 568.671 790.038 578.381 789.969 578.797L789.9 579.213ZM840.532 578.52H790.801C791.564 576.578 795.795 568.324 816.048 562.151L816.325 562.082L815.632 555.978L812.857 543.424H836.023L840.532 578.52Z" fill="#3F3D56"/>
<path d="M732.054 578.866H782.617L781.368 553.967L780.813 543.008H756.884L757.509 556.325L757.647 561.041C735.244 570.058 732.054 578.866 732.054 578.866Z" fill="#3F3D56"/>
<path d="M731.568 579.213H783.033L781.16 542.661H756.537L757.231 556.394L757.37 560.903C735.244 569.781 731.915 578.45 731.776 578.797L731.568 579.213ZM782.27 578.52H732.609C733.649 576.578 738.782 569.018 757.786 561.388L757.994 561.319L757.856 556.325L757.231 543.355H780.466L782.27 578.52Z" fill="#3F3D56"/>
<path d="M597.289 81.9779L562.124 74.071L558.309 87.4573C557.338 86.7637 556.367 86.3476 555.465 86.3476C551.304 86.3476 550.472 91.3414 550.472 91.3414C549.293 96.7514 552.83 100.081 554.425 102.439L542.357 141.072L572.25 145.719L574.817 121.027C600.549 133.997 597.289 81.9779 597.289 81.9779Z" fill="#FFAC71"/>
<path d="M572.597 145.996L575.163 121.443C580.227 123.871 584.596 124.01 588.064 121.721C599.578 114.091 597.775 83.2264 597.705 81.9085V81.6311L561.916 73.5854L558.171 86.7637C557.269 86.1394 556.367 85.862 555.535 85.862C551.165 85.862 550.194 91.0639 550.194 91.1333C549.154 95.8497 551.581 98.9709 553.315 101.26C553.593 101.607 553.87 101.953 554.078 102.3L541.941 141.141L572.597 145.996ZM574.539 120.403L571.973 145.233L542.842 140.656L554.841 102.3L554.772 102.161C554.495 101.815 554.217 101.398 553.87 100.982C552.206 98.7628 549.917 95.7803 550.888 91.4107C550.957 91.2026 551.72 86.6943 555.535 86.6943C556.367 86.6943 557.269 87.0411 558.171 87.7347L558.587 88.0121L562.471 74.4871L597.081 82.2553C597.22 85.3071 598.399 114.161 587.718 121.166C584.388 123.385 580.088 123.177 575.094 120.68L574.539 120.403Z" fill="#3F3D56"/>
<path d="M607.832 66.8577C606.237 66.5109 602.214 66.8577 599.786 68.8691C599.925 68.5917 600.064 68.3142 600.202 68.0368C603.809 57.2168 588.62 65.2624 580.574 66.8577C578.909 67.2045 575.233 67.69 575.233 67.69C551.166 62.2106 553.593 86.7638 553.593 86.7638C559.905 85.8621 561.778 94.4626 561.778 94.4626C568.228 91.4108 570.239 87.0412 570.447 85.1685C576.69 88.0122 592.712 93.4222 605.959 83.8507C615.045 77.2615 611.855 67.6206 607.832 66.8577Z" fill="#2F2E41"/>
<path d="M747.521 169.717C747.521 169.717 757.301 151.476 758.133 142.39L754.041 122.414C754.041 122.414 753.555 103.271 778.732 107.918C778.732 107.918 778.594 98.9016 784.559 96.7515C784.559 96.7515 781.646 101.815 782.686 106.809C782.686 106.809 787.541 95.7111 796.697 101.537C796.697 101.537 803.771 105.421 801.899 112.496C801.899 112.496 802.037 120.542 791.009 120.68C791.009 120.68 791.148 130.737 815.493 144.401C815.493 144.401 835.746 154.111 834.081 175.266C832.417 196.42 813.551 209.737 813.551 209.737L744.192 209.807L747.521 169.717Z" fill="#2F2E41"/>
<path d="M786.015 177.485L783.033 142.598C783.033 142.598 788.235 139.546 786.917 133.581C786.917 133.581 785.669 128.795 780.883 132.471L780.744 124.01C780.744 124.01 763.959 130.321 754.18 120.819C754.18 120.819 747.105 153.834 762.017 153.765L758.827 181.508L786.015 177.485Z" fill="#FFAC71"/>
<path d="M758.48 181.924L786.431 177.832L783.449 142.806C784.42 142.182 788.512 139.061 787.333 133.512C787.333 133.442 786.778 131.431 785.114 130.876C784.004 130.529 782.755 130.807 781.299 131.778L781.16 123.524L780.675 123.663C780.536 123.732 764.028 129.766 754.457 120.542L754.041 120.125L753.902 120.75C753.694 121.651 749.186 143.153 755.705 151.129C757.231 153.002 759.243 153.973 761.67 154.042L758.48 181.924ZM785.668 177.208L759.312 181.092L762.502 153.418H762.086C759.659 153.418 757.717 152.516 756.26 150.713C750.573 143.708 753.833 125.119 754.526 121.513C763.473 129.558 777.761 125.397 780.536 124.495L780.675 133.165L781.229 132.749C782.686 131.639 783.935 131.223 784.906 131.57C786.223 131.986 786.709 133.72 786.709 133.72C787.957 139.407 783.171 142.251 782.963 142.39L782.755 142.528V142.737L785.668 177.208Z" fill="#2F2E41"/>
<path d="M558.379 555.007L582.516 556.533L582.724 543.008H558.795L558.379 555.007Z" fill="#3F3D56"/>
<path d="M493.736 555.492L516.833 557.365L518.775 543.008H494.846L493.736 555.492Z" fill="#3F3D56"/>
<path d="M528.208 263.907L529.179 269.178L535.074 301.708L550.333 385.355L551.235 412.96L555.882 551.262H596.249L600.758 386.187L594.376 294.147L592.226 263.907H528.208Z" fill="#CDCBCC"/>
<path d="M555.535 551.608H596.596V551.262L601.104 386.187L592.573 263.56H527.792L549.986 385.424L555.535 551.608ZM595.902 550.915H556.159L550.611 385.355L528.555 264.254H591.81L600.411 386.256L595.902 550.915Z" fill="#3F3D56"/>
<path d="M812.372 543.008L815.285 555.978L837.688 553.55L836.301 543.008H812.372Z" fill="#3F3D56"/>
<path d="M756.884 543.008L757.509 556.394L781.368 553.967L780.813 543.008H756.884Z" fill="#3F3D56"/>
<path d="M487.147 551.955H527.931L551.235 412.959L556.437 381.817L565.315 301.499L568.853 269.178H502.615L502.892 294.702L503.863 378.904L487.147 551.955Z" fill="#CDCBCC"/>
<path d="M486.8 552.302H528.277L528.346 552.025L556.853 381.887L569.338 268.831H502.337L503.585 378.904L486.8 552.302ZM527.653 551.608H487.563L504.21 378.974L502.961 269.525H568.506L556.09 381.748L527.653 551.608Z" fill="#3F3D56"/>
<path d="M737.603 365.032L748.284 551.262H785.183L783.934 433.212L783.172 365.865L788.512 303.442L790.593 278.542L759.659 278.056L742.181 277.709L740.724 305.661L737.603 365.032Z" fill="#3F3D56"/>
<path d="M748.007 551.608H785.53V551.262L783.519 365.865L791.009 278.195L741.903 277.363L737.256 365.032L748.007 551.608ZM784.836 550.915H748.631L737.95 365.032L742.527 278.056L790.246 278.888L782.825 365.865L784.836 550.915Z" fill="#3F3D56"/>
<path d="M502.614 269.178L502.891 294.702C514.405 298.517 525.225 300.737 535.074 301.708C546.38 302.887 556.575 302.54 565.315 301.43C578.424 299.835 588.411 296.506 594.307 294.078L592.226 263.838H528.208L529.179 269.109H502.614V269.178Z" fill="#3F3D56"/>
<path d="M759.243 275.143L759.659 278.056L763.612 306.84L774.086 382.719L783.934 433.212L806.684 550.152L840.462 550.845L824.926 379.043L820.626 289.292L819.863 273.478L759.243 275.143Z" fill="#3F3D56"/>
<path d="M840.878 551.192V550.776L825.342 378.974L820.21 273.062L758.896 274.727L773.739 382.788L806.407 550.499L840.878 551.192ZM819.516 273.825L824.579 379.043L840.115 550.429L806.962 549.736L774.433 382.58L759.659 275.42L819.516 273.825Z" fill="#3F3D56"/>
<path d="M745.093 174.711L718.182 209.737L680.589 217.089V244.139L724.632 239.978C727.684 239.7 730.528 238.591 733.025 236.857L750.642 224.372L745.093 174.711Z" fill="#CDCBCC"/>
<path d="M680.243 244.556L724.702 240.325C727.754 240.047 730.736 238.938 733.302 237.134L751.128 224.511L745.44 173.809L718.043 209.391L680.312 216.812V244.556H680.243ZM750.365 224.233L732.886 236.649C730.459 238.383 727.615 239.423 724.632 239.7L680.936 243.862V217.436L718.39 210.084L718.459 210.015L744.885 175.682L750.365 224.233Z" fill="#3F3D56"/>
<path d="M573.985 136.841C573.985 136.841 568.783 149.117 545.409 124.911L505.319 139.685C499.632 142.182 495.609 147.383 494.569 153.487L488.257 189.138H510.175L500.048 284.437C500.048 284.437 529.595 292.275 552.206 292.76C589.521 293.592 597.775 286.934 597.775 286.934L596.11 253.087L595.833 176.098C596.249 165.139 591.672 156.886 585.152 148.008L573.985 136.841Z" fill="#FFD078"/>
<path d="M558.448 293.176C590.146 293.176 597.636 287.419 597.914 287.211L598.052 287.073L596.388 253.017L596.11 176.029C596.526 165.278 592.088 156.886 585.36 147.73L573.846 136.217L573.638 136.702C573.569 136.772 572.598 138.922 569.684 139.477C565.87 140.17 558.657 138.159 545.617 124.634L545.478 124.495L545.27 124.564L505.18 139.338C499.354 141.904 495.262 147.175 494.222 153.418L487.841 189.484H509.758L499.632 284.714L499.909 284.784C500.187 284.853 529.734 292.621 552.137 293.176C554.287 293.176 556.437 293.176 558.448 293.176ZM597.359 286.726C596.11 287.558 586.331 293.176 552.137 292.413C531.052 291.928 503.516 284.923 500.395 284.16L510.521 188.722H488.673L494.915 153.487C495.956 147.453 499.84 142.39 505.458 139.962L545.339 125.327C558.518 138.922 566.009 140.933 569.893 140.17C572.39 139.685 573.638 138.159 574.123 137.396L584.943 148.146C591.741 157.441 595.902 165.417 595.486 176.029L595.764 253.017L597.359 286.726Z" fill="#3F3D56"/>
<path d="M597.914 172.63H708.541V258.774H597.914V172.63Z" fill="#3F3D56"/>
<path d="M578.84 172.63H680.035V258.774H578.84V172.63Z" fill="#FEFEFE"/>
<path d="M578.493 259.121H680.381V172.284H578.493V259.121ZM679.688 258.428H579.187V172.977H679.688V258.428Z" fill="#3F3D56"/>
<path d="M613.519 172.63V194.132L619.831 190.664L624.686 193.924L630.512 190.664L635.922 194.132V172.63H613.519Z" fill="#3F3D56"/>
<path d="M635.853 214.939H659.227V216.327H635.853V214.939Z" fill="#3F3D56"/>
<path d="M635.853 224.025H659.227V225.413H635.853V224.025Z" fill="#3F3D56"/>
<path d="M635.853 233.112H659.227V234.499H635.853V233.112Z" fill="#3F3D56"/>
<path d="M591.324 213.067H629.125V236.649H591.324V213.067Z" fill="#FEFEFE"/>
<path d="M590.978 236.996H629.472V212.72H590.978V236.996ZM628.778 236.302H591.671V213.414H628.778V236.302Z" fill="#3F3D56"/>
<path d="M740.724 305.661C746.55 306.493 754.526 307.187 763.612 306.84C771.242 306.563 779.703 305.592 788.443 303.441C799.055 300.806 810.083 296.367 820.556 289.292L819.793 273.478L759.243 275.143L759.659 278.056L742.18 277.779L740.724 305.661Z" fill="#3F3D56"/>
<path d="M680.243 261.618C680.867 262.658 681.699 263.491 682.67 264.184C683.641 264.878 684.751 265.363 685.93 265.571L691.41 266.82C694.947 267.583 698.554 267.999 702.16 267.999H706.946C708.333 267.999 709.72 267.652 710.9 266.959L716.032 264.115L721.442 263.491L741.556 261.063V245.596L724.633 248.232L716.795 249.48L699.802 244.764C699.802 244.764 696.82 250.937 706.114 254.058L697.097 258.497H681.977C680.381 258.358 679.341 260.231 680.243 261.618Z" fill="#E78D4C"/>
<path d="M702.23 268.276H707.015C708.472 268.276 709.928 267.93 711.177 267.167L716.24 264.392L741.972 261.271V245.111L716.864 249.064L699.663 244.278L699.525 244.556C699.455 244.625 698.415 246.844 699.525 249.341C700.357 251.353 702.299 252.948 705.281 254.058L697.097 258.081H682.046C681.144 258.081 680.312 258.566 679.896 259.329C679.48 260.092 679.48 261.063 679.965 261.826C680.659 262.866 681.491 263.768 682.462 264.462C683.503 265.155 684.612 265.641 685.791 265.918L691.271 267.167C694.947 267.93 698.554 268.276 702.23 268.276ZM741.279 260.716L715.963 263.768L710.83 266.612C709.651 267.236 708.333 267.583 707.015 267.583H702.23C698.623 267.583 695.016 267.167 691.548 266.404L686.069 265.155C684.959 264.878 683.919 264.462 682.948 263.768C682.046 263.144 681.214 262.312 680.589 261.341C680.243 260.786 680.243 260.092 680.52 259.537C680.798 258.982 681.422 258.636 682.046 258.636H697.236L707.085 253.78L706.252 253.503C703.062 252.463 700.981 250.867 700.149 248.925C699.386 247.191 699.802 245.596 700.079 244.972L716.864 249.619L741.279 245.804V260.716Z" fill="#3F3D56"/>
<path d="M612.271 119.64H680.867V173.046H612.271V119.64Z" fill="#3F3D56"/>
<path d="M600.48 119.64H663.181V173.046H600.48V119.64Z" fill="#FFD078"/>
<path d="M600.133 173.393H663.527V119.293H600.133V173.393ZM662.834 172.7H600.826V119.987H662.834V172.7Z" fill="#3F3D56"/>
<path d="M621.912 119.64V132.957L625.865 130.807L628.917 132.818L632.524 130.807L635.853 132.957V119.64H621.912Z" fill="#3F3D56"/>
<path d="M635.784 145.58H650.28V146.968H635.784V145.58Z" fill="#3F3D56"/>
<path d="M635.784 151.198H650.28V152.586H635.784V151.198Z" fill="#3F3D56"/>
<path d="M635.784 156.886H650.28V158.273H635.784V156.886Z" fill="#3F3D56"/>
<path d="M608.179 144.679H631.622V159.313H608.179V144.679Z" fill="#FEFEFE"/>
<path d="M607.832 159.66H631.969V144.332H607.832V159.66ZM631.275 158.967H608.525V145.025H631.275V158.967Z" fill="#3F3D56"/>
<path d="M721.511 263.421L741.625 260.994V245.527L724.702 248.162L721.511 263.421Z" fill="#3F3D56"/>
<path d="M727.615 246.637L740.308 244.209L742.389 181.924C742.527 177.971 744.331 174.226 747.383 171.659L760.353 160.839C760.353 160.839 762.849 176.723 787.056 160.839L809.459 168.885C815.771 171.174 820.556 176.514 822.082 183.034L836.232 251.769C837.549 258.15 832.833 264.184 826.313 264.392L819.585 264.6L822.845 286.518C822.845 286.518 799.749 296.436 776.028 297.893C748.7 299.627 739.753 293.107 740.1 292.205L741.487 268.901L727.615 269.456V246.637Z" fill="#CDCBCC"/>
<path d="M767.15 298.656C769.855 298.656 772.837 298.586 776.028 298.378C799.54 296.922 822.706 287.073 822.984 286.934L823.261 286.795L823.192 286.518L820.001 265.017L826.382 264.808C829.573 264.67 832.555 263.213 834.567 260.647C836.578 258.15 837.341 254.89 836.647 251.769L822.498 183.034C820.903 176.306 816.117 170.966 809.597 168.607L787.056 160.492L786.917 160.562C777.554 166.735 770.132 168.885 765.416 166.804C761.462 165.07 760.769 160.839 760.769 160.839L760.699 160.215L747.313 171.451C744.192 174.087 742.319 177.902 742.18 181.994L740.1 244.001L727.407 246.428V270.01L741.279 269.456L739.891 292.344C739.822 292.552 739.892 292.691 740.03 292.899C740.863 294.217 748.145 298.656 767.15 298.656ZM822.429 286.379C819.862 287.42 798.084 296.228 775.958 297.615C749.81 299.28 740.863 293.315 740.446 292.344V292.275L741.834 268.554L727.892 269.109V246.844L740.585 244.417L742.666 181.855C742.805 177.971 744.608 174.364 747.521 171.867L760.006 161.394C760.352 162.712 761.532 165.833 764.93 167.29C769.924 169.509 777.276 167.428 786.987 161.117L809.251 169.093C815.493 171.312 820.14 176.514 821.666 183.034L835.815 251.769C836.439 254.682 835.676 257.734 833.873 260.092C832 262.45 829.226 263.837 826.243 263.976L819.1 264.184L822.429 286.379Z" fill="#3F3D56"/>
<path d="M819.527 264.209L819.567 264.901L740.901 269.417L740.861 268.725L819.527 264.209Z" fill="#3F3D56"/>
<path d="M740.03 244.556L799.887 232.21L794.477 202.385L793.783 202.524L799.124 231.655L739.891 243.931L740.03 244.556Z" fill="#3F3D56"/>
<path d="M484.997 232.973C484.372 239.978 488.742 246.498 495.47 248.579L566.355 270.635L573.083 272.993C575.649 273.895 578.423 274.172 581.128 273.825L594.723 272.161C595.555 272.022 596.457 271.814 597.22 271.536L613.103 265.71C615.114 264.947 616.918 263.56 618.097 261.757L618.305 261.41C619.137 260.162 618.236 258.497 616.71 258.497H591.185C598.607 253.781 598.052 249.619 598.052 249.619L582.377 251.769L570.933 253.156L516.902 226.8L523.144 195.658L524.393 189.346H488.465L488.118 193.022L484.997 232.973Z" fill="#FFAC71"/>
<path d="M578.978 274.311C579.741 274.311 580.504 274.241 581.198 274.172L594.792 272.507C595.694 272.369 596.595 272.161 597.358 271.883L613.242 266.057C615.392 265.294 617.126 263.907 618.374 261.965L618.582 261.618C619.068 260.924 619.068 260.023 618.652 259.329C618.235 258.566 617.542 258.15 616.64 258.15H592.295C598.815 253.642 598.399 249.758 598.33 249.55L598.26 249.203L582.238 251.353L570.863 252.671L517.179 226.522L524.74 188.86H488.118L484.372 232.903C483.748 240.117 488.187 246.706 495.123 248.856L566.008 270.912L572.736 273.27C574.886 273.964 576.967 274.311 578.978 274.311ZM616.848 258.844C617.403 258.844 617.958 259.121 618.235 259.676C618.513 260.162 618.513 260.786 618.166 261.271L617.958 261.618C616.779 263.352 615.114 264.67 613.172 265.433L597.289 271.259C596.526 271.536 595.694 271.744 594.862 271.883L581.267 273.548C578.632 273.895 575.857 273.617 573.36 272.715L566.632 270.357L495.747 248.301C489.158 246.22 484.927 239.978 485.482 233.042L489.158 189.623H524.323L516.833 226.938L517.041 227.077L571.141 253.434L582.724 252.046L597.983 249.966C597.913 251.006 597.15 254.405 591.255 258.15L590.284 258.774H616.848V258.844Z" fill="#3F3D56"/>
<path d="M527.708 174.312L528.382 174.474L524.545 190.459L523.871 190.297L527.708 174.312Z" fill="#3F3D56"/>
<path d="M488.396 192.883L523.283 195.588L524.601 189.207H488.673L488.396 192.883Z" fill="#3F3D56"/>
<path d="M675.275 375.122C673.452 375.121 671.647 375.48 669.963 376.177C668.278 376.874 666.747 377.896 665.458 379.185C664.168 380.474 663.145 382.004 662.447 383.689C661.749 385.373 661.389 387.179 661.389 389.002C661.389 385.32 659.926 381.788 657.323 379.184C654.72 376.58 651.189 375.117 647.507 375.117C651.189 375.117 654.72 373.654 657.323 371.05C659.926 368.446 661.389 364.914 661.389 361.232C661.389 364.914 662.851 368.446 665.455 371.05C668.058 373.654 671.589 375.117 675.27 375.117L675.275 375.122Z" fill="#555185"/>
<path d="M712.05 462.869C715.177 462.869 717.713 460.332 717.713 457.204C717.713 454.075 715.177 451.539 712.05 451.539C708.922 451.539 706.386 454.075 706.386 457.204C706.386 460.332 708.922 462.869 712.05 462.869Z" fill="#FFD078"/>
<path d="M479.676 398.329C482.804 398.329 485.339 395.793 485.339 392.665C485.339 389.536 482.804 387 479.676 387C476.548 387 474.013 389.536 474.013 392.665C474.013 395.793 476.548 398.329 479.676 398.329Z" fill="#FFD078"/>
<path d="M673.168 305.955C677.164 305.955 680.404 302.715 680.404 298.718C680.404 294.72 677.164 291.48 673.168 291.48C669.172 291.48 665.932 294.72 665.932 298.718C665.932 302.715 669.172 305.955 673.168 305.955Z" fill="#FFD078"/>
<path d="M276.765 456.846C273.747 456.846 270.851 458.045 268.717 460.18C266.582 462.315 265.383 465.211 265.383 468.231C265.383 465.211 264.184 462.315 262.049 460.18C259.914 458.045 257.019 456.846 254 456.846C257.019 456.846 259.914 455.646 262.049 453.511C264.184 451.376 265.383 448.48 265.383 445.46C265.383 448.48 266.582 451.376 268.717 453.511C270.851 455.646 273.747 456.846 276.765 456.846Z" fill="#555185"/>
<path d="M343.322 449.372C345.408 449.372 347.099 447.68 347.099 445.594C347.099 443.507 345.408 441.816 343.322 441.816C341.236 441.816 339.545 443.507 339.545 445.594C339.545 447.68 341.236 449.372 343.322 449.372Z" fill="#FFD078"/>
<path d="M450.226 259.308C448.403 259.307 446.597 259.666 444.913 260.363C443.229 261.06 441.698 262.082 440.408 263.371C439.119 264.66 438.096 266.19 437.398 267.875C436.7 269.559 436.34 271.365 436.339 273.188C436.339 269.506 434.877 265.974 432.273 263.37C429.67 260.766 426.139 259.303 422.458 259.303C426.139 259.303 429.67 257.84 432.273 255.236C434.877 252.632 436.339 249.1 436.339 245.418C436.339 249.1 437.802 252.632 440.405 255.236C443.008 257.84 446.539 259.303 450.221 259.303L450.226 259.308Z" fill="#555185"/>
<path d="M431.006 171.301L431.014 171.301L431.022 171.301C432.851 171.243 434.672 171.554 436.379 172.214C438.085 172.874 439.642 173.871 440.956 175.144C442.27 176.418 443.315 177.943 444.028 179.628C444.742 181.314 445.11 183.125 445.11 184.955C445.11 186.786 444.742 188.597 444.028 190.283C443.315 191.968 442.27 193.493 440.956 194.766C439.642 196.04 438.085 197.037 436.379 197.697C434.672 198.357 432.851 198.668 431.022 198.61L431.014 198.61H431.006L373.312 198.61L373.309 198.61C371.6 198.62 369.913 198.221 368.388 197.448C366.864 196.674 365.546 195.547 364.545 194.16C363.544 192.774 362.889 191.169 362.633 189.478C362.378 187.787 362.53 186.06 363.077 184.44C363.624 182.82 364.55 181.354 365.778 180.164C367.006 178.974 368.5 178.095 370.136 177.599C371.772 177.104 373.503 177.007 375.184 177.316C376.866 177.624 378.449 178.331 379.802 179.375L380.781 180.131L380.603 178.907C379.729 172.909 381.25 166.807 384.837 161.921C388.423 157.035 393.788 153.756 399.771 152.793C405.754 151.83 411.876 153.261 416.814 156.775C421.752 160.289 425.109 165.606 426.161 171.576L426.261 172.142L426.807 171.965C428.164 171.525 429.58 171.301 431.006 171.301Z" fill="white" stroke="black"/>
<path d="M443.79 578.556C445.876 578.556 447.567 576.864 447.567 574.778C447.567 572.691 445.876 571 443.79 571C441.704 571 440.013 572.691 440.013 574.778C440.013 576.864 441.704 578.556 443.79 578.556Z" fill="#FFD078"/>
<path d="M700.944 13.7217L701.045 14.2812L701.587 14.1088C702.526 13.8101 703.506 13.66 704.491 13.6641C706.936 13.7569 709.25 14.7928 710.949 16.555C712.649 18.3192 713.6 20.6738 713.601 23.1243C713.602 25.5748 712.654 27.9304 710.955 29.6961C709.259 31.4596 706.946 32.4977 704.501 32.5931H663.891C662.717 32.593 661.561 32.3135 660.516 31.7776C659.472 31.2416 658.571 30.4648 657.887 29.5112C657.202 28.5576 656.755 27.4547 656.581 26.2938C656.408 25.1329 656.513 23.9473 656.888 22.8352C657.264 21.7231 657.899 20.7163 658.74 19.8983C659.582 19.0802 660.606 18.4744 661.728 18.1309C662.85 17.7874 664.038 17.7161 665.193 17.9228C666.348 18.1296 667.437 18.6085 668.371 19.32L669.339 20.0582L669.169 18.8524C668.579 14.6787 669.65 10.4402 672.15 7.04729C674.651 3.65435 678.382 1.37756 682.542 0.705831C686.702 0.0341 690.96 1.021 694.4 3.4546C697.841 5.8882 700.19 9.57445 700.944 13.7217Z" fill="white" stroke="black"/>
</svg>
